# xmcd
#
# Track frame offsets: 
#        183
#        13305
#        25508
#        38488
#        50985
#        63713
#        75870
#        88503
#        101198
#        113740
#        125965
#        138400
#        151388
#        163693
#        175970
#        188485
#        200895
#        212683
#        225533
#        237788
#        250350
#        262710
#        274370
#        287220
#        299578
#        312713
#
# Disc length: 4344 seconds
#
# Revision: 11
# Processed by: cddbd v1.5.2PL0 Copyright (c) Steve Scherf et al.
# Submitted via: ExactAudioCopy v1.3
#
DISCID=8510f61a
DTITLE=Hank Williams - The Original Singles Collection Plus Disc 1
DYEAR=1990
DGENRE=Country
TTITLE0=I'm Not Coming Home Anymore
TTITLE1=Never Again (Will I Knock On Your Door)
TTITLE2=Calling You
TTITLE3=Wealth Won't Save Your Soul
TTITLE4=When God Comes And Gathers His Jewels
TTITLE5=My Love For You (Has Turned To Hate)
TTITLE6=I Don't Care (If Tomorrow Never Comes)
TTITLE7=Pan American
TTITLE8=Honky Tonkin'
TTITLE9=(Last Night) I Heard You Crying In Your Sleep
TTITLE10=Move It On Over
TTITLE11=On The Banks Of The Old Pontchartrain
TTITLE12=Fly Trouble
TTITLE13=My Sweet Love Ain't Around
TTITLE14=Rootie Tootie
TTITLE15=Honky Tonkin'
TTITLE16=I'll Be A Bachelor 'Til I Die
TTITLE17=I'm A Long Gone Daddy
TTITLE18=The Blues Come Around
TTITLE19=Six More Miles (To The Graveyard)
TTITLE20=I Saw The Light
TTITLE21=A Mansion On The Hill
TTITLE22=I Can't Get You Off Of My Mind
TTITLE23=Lovesick Blues
TTITLE24=Wedding Bells
TTITLE25=I've Just Told Mama Goodbye
EXTD=3CD: PolyGram/Mercury Nashville 847 194-2 (1991-07-01), UPC 04228
EXTD=4719421.
EXTT0=(Hank Williams)
EXTT1=(Hank Williams)
EXTT2=(Hank Williams)
EXTT3=(Hank Williams)
EXTT4=(Hank Williams)
EXTT5=(Hank Williams)
EXTT6=(Hank Williams)
EXTT7=(Hank Williams)
EXTT8=(Hank Williams)
EXTT9=(Hank Williams)
EXTT10=(Hank Williams)
EXTT11=(Hank Williams/Ramona Vincent)
EXTT12=(Bunny Biggs/Fred Rose/Honey Wilds)
EXTT13=(Hank Williams)
EXTT14=(Fred Rose)
EXTT15=(Hank Williams)
EXTT16=(Hank Williams)
EXTT17=(Hank Williams)
EXTT18=(Hank Williams)
EXTT19=(Hank Williams)
EXTT20=(Hank Williams)
EXTT21=(Hank Williams/Fred Rose)
EXTT22=(Hank Williams)
EXTT23=(Irving Mills/Cliff Friend)
EXTT24=(Claude Boone)
EXTT25=(Curly Kinsey/Slim Sweet)
PLAYORDER=
